<?xml version="1.0" encoding="utf-8"?>
<!-- Generator: Adobe Illustrator 23.0.3, SVG Export Plug-In . SVG Version: 6.00 Build 0)  -->
<svg version="1.1" xmlns="http://www.w3.org/2000/svg" xmlns:xlink="http://www.w3.org/1999/xlink" x="0px" y="0px" width="60.05px"
	 height="62.02px" viewBox="0 0 60.05 62.02" style="enable-background:new 0 0 60.05 62.02;" xml:space="preserve">
<style type="text/css">
	.st0{display:none;}
	.st1{display:inline;fill:#5379B9;}
	.st2{display:inline;fill:#0B409C;}
	.st3{fill:#5379B9;}
	.st4{fill:#0B409C;}
</style>
<g id="圖層_10" class="st0">
</g>
<g id="圖層_6" class="st0">
</g>
<g id="圖層_7" class="st0">
</g>
<g id="圖層_8" class="st0">
	<polygon class="st1" points="-4.05,-19.17 122.43,54.41 122.43,11.91 -4.05,-61.68 	"/>
</g>
<g id="圖層_9" class="st0">
	<polygon class="st2" points="122.43,53.78 -4.05,127.36 -4.05,84.86 122.43,11.27 	"/>
</g>
<g id="圖層_3" class="st0">
</g>
<g id="圖層_4" class="st0">
</g>
<g id="圖層_5" class="st0">
	<polygon class="st2" points="122.43,-17.2 -4.05,56.39 -4.05,13.89 122.43,-59.7 	"/>
</g>
<g id="圖層_11">
	<polygon class="st3" points="5.57,42.58 30.19,56.91 30.19,48.63 5.57,34.31 	"/>
	<polygon class="st3" points="5.62,28.76 30.24,43.09 30.24,34.81 5.62,20.49 	"/>
	<polygon class="st4" points="30.05,28.38 5.42,42.71 5.42,34.43 30.05,20.1 	"/>
	<polygon class="st3" points="29.95,28.38 54.58,42.71 54.58,34.43 29.95,20.1 	"/>
	<polygon class="st4" points="54.58,42.58 29.95,56.91 29.95,48.63 54.58,34.31 	"/>
	<polygon class="st4" points="30.05,14.36 5.42,28.69 5.42,20.41 30.05,6.09 	"/>
	<polygon class="st3" points="30,14.36 54.63,28.69 54.63,20.41 30,6.09 	"/>
	<polygon class="st4" points="54.58,28.76 29.95,43.09 29.95,34.82 54.58,20.49 	"/>
</g>
</svg>
